<?xml version="1.0" encoding="utf-8"?>
<?xml-stylesheet type="text/xsl" href="rss1.xsl"?>
<rss version="2.0" xmlns:atom="http://www.w3.org/2005/Atom" xmlns:content="http://purl.org/rss/1.0/modules/content/" xmlns:dc="http://purl.org/dc/elements/1.1/" xmlns:media="http://search.yahoo.com/mrss/">
<channel>
 <title>Getty</title>
 <link>http://www.gettyimg.com/</link>
 <atom:link href="http://www.gettyimg.com/" rel="self" type="application/rss+xml" />

 
                <item>
                <title><![CDATA[【HD Live Performances】FEED - Sting - The Last Ship - Tony Awards S01E68 2014 1080i HDTV Backhaul FLAC 5.1 MPEG2-TrollHD]]></title>
                <link><![CDATA[https://sharemania.us/threads/sting-the-last-ship-tony-awards-s01e68-2014-1080i-hdtv-backhaul-flac-5-1-mpeg2-trollhd.225217/]]></link>
                <description><![CDATA[<article>
<blockquote class="messageText SelectQuoteContainer ugc baseHtml">
<img src="https://images2.imgbox.com/0a/d1/gk0KSF7p_o.jpg" class="bbCodeImage LbImage" alt="[​IMG]" data-url="https://images2.imgbox.com/0a/d1/gk0KSF7p_o.jpg" style=""> <br>
<br>
<div class="bbCodeBlock bbCodeCode">
<div class="type">Code:</div>
<pre>General
Unique ID                      : 126597443301705392050026486589130298423 (0x5F3DC7DB8BDFDB4716364E1117F45437)
Format                         : Matroska
Format version                 : Version 4
File size                      : 970 MiB
Duration                       : 3 min 25 s
Overall bit rate mode          : Variable
Overall bit rate               : 39.5 Mb/s
Encoded date                   : UTC 2023-07-26 11:57:38
Writing application            : mkvmerge v30.0.0 ('Interstellar') 64-bit
Writing library                : libebml v1.3.6 + libmatroska v1.4.9

Video
ID                             : 1
Format                         : MPEG Video
Format version                 : Version 2
Format profile                 : 4:2:2@High
Format settings                : CustomMatrix / BVOP
Format settings, BVOP          : Yes
Format settings, Matrix        : Custom
Format settings, GOP           : M=3, N=12
Format settings, picture struc : Frame
Codec ID                       : V_MPEG2
Codec ID/Info                  : MPEG 1 or 2 Video
Duration                       : 3 min 25 s
Bit rate mode                  : Constant
Bit rate                       : 36.3 Mb/s
Width                          : 1 920 pixels
Height                         : 1 080 pixels
Display aspect ratio           : 16:9
Frame rate mode                : Constant
Frame rate                     : 29.970 (30000/1001) FPS
Standard                       : Component
Color space                    : YUV
Chroma subsampling             : 4:2:2
Bit depth                      : 8 bits
Scan type                      : Interlaced
Scan order                     : Top Field First
Compression mode               : Lossy
Bits/(Pixel*Frame)             : 0.583
Time code of first frame       : 09:19:41;15
Time code source               : Group of pictures header
GOP, Open/Closed               : Open
Stream size                    : 889 MiB (92%)
Default                        : Yes
Forced                         : No
Color primaries                : BT.709
Transfer characteristics       : BT.709
Matrix coefficients            : BT.709

Audio
ID                             : 2
Format                         : FLAC
Format/Info                    : Free Lossless Audio Codec
Codec ID                       : A_FLAC
Duration                       : 3 min 25 s
Bit rate mode                  : Variable
Bit rate                       : 3 281 kb/s
Channel(s)                     : 6 channels
Channel layout                 : L R C LFE Ls Rs
Sampling rate                  : 48.0 kHz
Frame rate                     : 11.719 FPS (4096 SPF)
Bit depth                      : 24 bits
Compression mode               : Lossless
Delay relative to video        : 131 ms
Stream size                    : 80.5 MiB (8%)
Writing library                : libFLAC 1.3.1 (UTC 2014-11-25)
Language                       : English
Default                        : Yes
Forced                         : No

</pre>
</div>
<div class="bbCodeBlock bbCodeVfcHH HiddenContent">
<div class="attribution type">Hidden Content:</div>
<blockquote>You must either reply or click 'Like' to see the hidden information contained here.</blockquote>
</div><span style="color: rgb(191, 191, 191)">Cutted with:</span><br>
<b>MKVToolNix GUI<br>
<br>
<img src="styles/default/xenforo/smilies/super_man-48.png" class="mceSmilie" alt=":super:" title="Super Man    :super:"><img src="styles/default/xenforo/smilies/super_man-48.png" class="mceSmilie" alt=":super:" title="Super Man    :super:"><img src="styles/default/xenforo/smilies/super_man-48.png" class="mceSmilie" alt=":super:" title="Super Man    :super:"></b>
<div class="messageTextEndMarker">&nbsp;</div>
</blockquote>
</article>]]></description>
                <author><![CDATA[Dream66]]></author>
                </item>

                
                <item>
                <title><![CDATA[【Albums (lossless)】FLAC - ZARD - The 1st Studio Album - «Good-bye My Loneliness» [16bits/44.1kHz]]]></title>
                <link><![CDATA[https://sharemania.us/threads/zard-the-1st-studio-album-%C2%ABgood-bye-my-loneliness%C2%BB-16bits-44-1khz.225218/]]></link>
                <description><![CDATA[<article>
<blockquote class="messageText SelectQuoteContainer ugc baseHtml">
<div style="text-align: center"><img src="https://i.imgur.com/0BSJ6fp.jpg" class="bbCodeImage LbImage" alt="[​IMG]" data-url="https://i.imgur.com/0BSJ6fp.jpg" style=""> <br>
<br>
<span style="font-family: 'Book Antiqua'"><b><b>ZARD</b> </b>was a Japanese pop group under B-Gram RECORDS. Around the release of their third album, HOLD ME, all the band members had left except Izumi Sakai (坂井泉水, born on February 6, 1967). ZARD then became the solo project of Izumi, writing all the music and lyrics herself. According to an episode of Music Station in 2005, ZARD has sold a combined total of 35,450,000 copies, making her the #8 best selling artist in Japan.<br>
<br>
ZARD also performed several songs that have been chosen as Japanese anime themes such as Meitantei Conan, Dragon Ball GT, and Slam Dunk. Since their debut, ZARD released 42 singles and 17 albums in total. Izumi's vocals are considered by many critics a high point of ZARD's music, which revolve around ballads.<br>
<br>
Sakai was diagnosed with cervical cancer in June 2006; the cancer went into remission, but despite this onset, on April of 2007, the cancer was on the move again. On the 26th of May, while being treated for this cancer, Sakai fell three meters from a hospital staircase while returning to her room from a routine walk around the hospital. She was found at 5:40am. She suffered severe trauma to the back of her head (brain contusion), and on 3:10pm she died due to the cerebral contusion. The slippery surface of the staircase due to rain the previous day was blamed for her fall. Some rumors about suicide were being considered, but in the end discarded.<br>
<br>
On June 27th 2007, a memorial funeral was held at Aoyama Cemetery.</span><br>
<br>
<span style="font-family: 'Book Antiqua'"><b><i>Good-bye My Loneliness</i> is the debut album of <a href="https://en.wikipedia.org/wiki/Zard" target="_blank" class="externalLink" rel="nofollow">Z</a>ARD released on March 27, 1991.</b></span><br>
<br>
<div class="ToggleTriggerAnchor bbCodeSpoilerContainer">
<button type="button" class="button bbCodeSpoilerButton ToggleTrigger Tooltip JsOnly" data-target="> .SpoilerTarget"><span>Spoiler: <span class="SpoilerTitle">Tracklist</span></span></button>
<div class="SpoilerTarget bbCodeSpoilerText">1. Good-bye My Loneliness<br>
2. Ai wa kurayami no naka de<br>
3. Koi onna no yuutsu<br>
4. Oh! Sugar Baby<br>
5. Onna de itai<br>
6. It's a Boy</div>
</div><br>
<div data-s9e-mediaembed="spotify" style="display:inline-block;width:100%;max-width:400px"><div style="overflow:hidden;position:relative;padding-bottom:120%"><iframe allowfullscreen="" scrolling="no" style="border:0;height:100%;left:0;position:absolute;width:100%" src="https://embed.spotify.com/?view=coverart&amp;uri=spotify:album:3xcuekQFyhyEkyTorHiFCB"></iframe></div></div><br>
<br>
<div class="bbCodeBlock bbCodeVfcHH HiddenContent">
<div class="attribution type">Hidden Content:</div>
<blockquote>You must either reply or click 'Like' to see the hidden information contained here.</blockquote>
</div></div>
<div class="messageTextEndMarker">&nbsp;</div>
</blockquote>
</article>]]></description>
                <author><![CDATA[WithLoveSNSD]]></author>
                </item>

                </channel></rss>